<?xml version="1.0" standalone="no"?>
<!DOCTYPE svg PUBLIC "-//W3C//DTD SVG 20010904//EN"
 "http://www.w3.org/TR/2001/REC-SVG-20010904/DTD/svg10.dtd">
<svg version="1.0" xmlns="http://www.w3.org/2000/svg"
 width="666.000000pt" height="474.000000pt" viewBox="0 0 666.000000 474.000000"
 preserveAspectRatio="xMidYMid meet">
<metadata>
Created by potrace 1.10, written by Peter Selinger 2001-2011
</metadata>
<g transform="translate(0.000000,474.000000) scale(0.100000,-0.100000)"
fill="#002d4d" stroke="none">
<path d="M2740 4430 l-434 -5 3 -325 c2 -262 -1 -341 -13 -405 -9 -44 -16
-110 -16 -148 0 -74 -15 -107 -84 -180 -20 -21 -36 -42 -36 -48 0 -5 -4 -9 -8
-9 -5 0 -23 -19 -40 -42 -17 -24 -46 -60 -65 -80 -19 -20 -55 -63 -80 -95 -25
-32 -59 -73 -76 -91 -17 -18 -31 -37 -31 -43 0 -5 -4 -9 -8 -9 -5 0 -24 -21
-43 -47 -18 -26 -40 -54 -49 -63 -8 -8 -37 -44 -65 -80 -27 -36 -57 -72 -65
-80 -8 -8 -37 -45 -64 -83 -28 -37 -53 -67 -58 -67 -4 0 -8 -5 -8 -11 0 -6
-20 -37 -45 -69 -25 -32 -45 -63 -45 -68 0 -5 -7 -15 -15 -22 -22 -18 -22
-490 0 -603 8 -43 15 -132 15 -197 0 -74 6 -141 15 -177 9 -33 15 -101 15
-164 0 -65 6 -125 15 -155 9 -29 15 -90 15 -149 0 -59 6 -120 15 -149 8 -27
15 -77 15 -111 0 -38 5 -68 15 -81 8 -10 15 -26 15 -35 0 -22 91 -119 112
-119 8 0 21 -7 28 -15 18 -21 172 -21 190 0 7 8 20 15 28 15 19 0 72 49 72 66
0 6 7 17 15 24 13 11 15 89 15 594 0 593 1 606 36 606 7 0 28 14 46 31 18 17
60 51 93 77 33 25 62 49 65 53 5 6 50 44 145 124 136 114 251 226 608 594
l207 214 0 813 c0 447 -3 814 -7 816 -5 2 -204 1 -443 -2z m348 -842 l2 -756
-172 -179 c-336 -347 -469 -477 -599 -585 -24 -20 -62 -53 -84 -73 -22 -20
-67 -57 -99 -83 -33 -25 -80 -65 -105 -89 -35 -32 -54 -43 -79 -43 -18 0 -42
-5 -54 -11 -14 -8 -28 -7 -51 2 -35 14 -54 36 -79 92 l-17 37 102 103 c56 56
184 181 284 277 l182 175 -32 32 -33 33 -144 -141 c-80 -78 -209 -202 -287
-277 l-143 -135 0 -77 c0 -57 4 -81 15 -90 8 -7 15 -17 15 -22 0 -15 43 -68
56 -68 6 0 17 -7 24 -15 8 -9 29 -15 55 -15 27 0 45 -5 48 -13 3 -8 3 -266 0
-575 l-6 -561 -23 -22 c-19 -18 -35 -21 -100 -22 l-78 0 -43 49 c-28 31 -43
58 -43 75 0 15 -7 46 -15 69 -9 26 -15 79 -15 139 0 53 -7 121 -15 151 -8 31
-15 99 -15 155 0 56 -7 124 -15 155 -9 33 -15 100 -15 170 0 63 -5 131 -11
150 -6 19 -15 127 -20 240 -4 113 -11 251 -15 308 -7 106 3 167 33 203 7 8 13
19 13 24 0 4 6 13 14 19 7 6 54 65 105 131 136 180 188 246 232 293 21 24 39
45 39 48 0 2 8 12 18 22 9 10 42 49 72 87 30 37 62 75 71 84 8 9 31 36 50 61
18 24 41 52 49 61 36 40 68 77 100 119 19 24 47 58 63 74 17 20 27 42 27 62 0
17 7 48 15 68 12 29 16 110 21 433 4 294 8 399 17 405 7 4 163 7 347 5 l335
-2 3 -757z"/>
<path d="M3480 3613 l0 -817 128 -130 c70 -72 183 -191 252 -265 69 -73 137
-145 151 -160 66 -66 246 -223 454 -396 26 -22 55 -47 64 -56 32 -30 99 -79
110 -79 34 0 36 -37 39 -627 3 -487 6 -584 18 -594 8 -6 14 -16 14 -21 0 -14
42 -47 60 -48 8 0 24 -7 34 -15 28 -21 169 -21 186 0 7 8 20 15 30 15 19 0 90
67 90 85 0 7 7 18 15 25 8 7 15 22 15 34 0 11 7 30 15 40 11 14 15 46 15 106
0 48 7 109 15 136 9 29 15 89 15 150 0 60 6 121 15 150 9 30 15 91 15 159 0
61 7 137 15 170 8 36 15 113 15 190 0 72 7 173 15 225 20 131 20 419 0 446 -8
10 -15 25 -15 32 0 13 -203 289 -226 308 -8 6 -14 16 -14 23 0 6 -4 11 -8 11
-5 0 -28 27 -52 60 -24 33 -47 60 -52 60 -4 0 -8 4 -8 9 0 6 -12 23 -26 38
-15 15 -45 51 -66 78 -51 64 -109 134 -128 154 -8 9 -31 36 -50 61 -19 25 -42
52 -50 61 -36 40 -68 77 -100 119 -19 24 -47 58 -62 74 -21 23 -28 41 -28 71
0 22 -7 62 -15 89 -12 40 -15 123 -15 448 l0 398 -440 0 -440 0 0 -817z m781
427 c4 -168 12 -325 17 -350 6 -25 11 -81 12 -126 0 -54 5 -86 15 -100 8 -10
15 -31 15 -45 0 -15 7 -33 16 -40 9 -7 36 -39 61 -71 24 -32 58 -73 75 -91 16
-17 50 -58 75 -90 24 -31 58 -72 75 -90 16 -17 51 -59 76 -92 26 -33 54 -67
62 -75 9 -9 31 -37 49 -63 19 -26 38 -47 43 -47 4 0 8 -4 8 -10 0 -5 20 -31
45 -57 24 -26 45 -54 45 -61 0 -7 7 -15 15 -18 8 -4 15 -11 15 -16 0 -6 6 -16
14 -22 20 -17 166 -214 166 -224 0 -6 7 -12 15 -16 22 -8 22 -512 0 -601 -8
-35 -14 -112 -15 -185 0 -77 -6 -146 -15 -180 -9 -32 -15 -99 -15 -161 0 -65
-6 -125 -15 -155 -9 -29 -15 -90 -15 -149 0 -59 -6 -120 -15 -149 -8 -27 -15
-73 -15 -101 0 -35 -5 -57 -15 -65 -8 -7 -15 -18 -15 -24 0 -7 -15 -27 -34
-45 -33 -32 -38 -33 -111 -33 -84 0 -109 12 -118 60 -3 15 -11 264 -18 554 -9
398 -10 534 -1 553 10 22 18 25 61 25 45 0 53 4 95 46 25 25 46 54 46 64 0 9
7 23 15 30 10 9 15 32 15 75 l0 62 -197 191 c-332 321 -376 362 -383 362 -10
0 -60 -47 -60 -57 0 -8 76 -83 250 -247 286 -270 292 -277 292 -324 -2 -74
-74 -138 -128 -113 -14 6 -38 11 -54 11 -17 0 -38 8 -48 17 -10 10 -40 36 -67
58 -83 69 -140 118 -145 124 -3 4 -26 23 -51 42 -114 86 -221 189 -644 620
l-180 184 -3 743 c-2 509 1 749 8 762 11 20 21 20 343 18 l332 -3 6 -305z"/>
<path d="M3249 2508 c-14 -13 -74 -65 -134 -117 -61 -52 -114 -99 -120 -105
-5 -6 -59 -54 -120 -105 -60 -52 -114 -99 -120 -105 -5 -6 -62 -56 -125 -111
-112 -97 -181 -158 -205 -182 -6 -6 -38 -33 -71 -61 -33 -27 -83 -72 -112
-100 l-52 -51 0 -575 c0 -559 1 -576 19 -586 30 -16 2143 -14 2159 2 9 9 12
158 12 609 l0 598 -22 25 c-42 45 -1058 886 -1072 886 -7 0 -24 -10 -37 -22z
m180 -325 c64 -54 148 -125 187 -158 39 -33 117 -98 174 -145 56 -47 137 -114
180 -150 42 -36 109 -91 149 -124 l71 -59 0 -478 0 -479 -307 2 -308 3 -5 325
-5 325 -280 0 -280 0 -5 -325 -5 -325 -302 -3 c-167 -1 -303 1 -303 5 0 5 0
210 -1 458 l0 449 33 31 c18 17 65 58 103 90 39 33 87 75 109 95 57 52 77 70
147 130 35 30 70 62 79 70 8 8 65 58 125 110 108 92 144 125 235 208 26 24 55
42 69 42 15 0 64 -34 140 -97z"/>
</g>
</svg>
